<svg 
 xmlns="http://www.w3.org/2000/svg"
 xmlns:xlink="http://www.w3.org/1999/xlink"
 width="27px" height="36px">
<path fill-rule="evenodd"  fill="rgb(0, 192, 255)"
 d="M22.558,34.297 C20.914,35.410 19.001,35.998 17.025,35.998 L9.975,35.998 C7.999,35.998 6.086,35.410 4.442,34.297 C1.660,32.414 0.000,29.262 0.000,25.867 L0.000,25.471 C0.000,23.180 0.775,20.935 2.183,19.146 L7.620,12.122 C6.783,11.554 6.231,10.586 6.231,9.490 C6.231,7.746 7.626,6.327 9.342,6.325 C8.667,5.106 8.308,3.725 8.308,2.287 L8.308,1.051 C8.308,0.470 8.773,-0.003 9.346,-0.003 L17.654,-0.003 C18.227,-0.003 18.692,0.470 18.692,1.051 L18.692,2.287 C18.692,3.725 18.333,5.106 17.658,6.325 C19.374,6.327 20.769,7.746 20.769,9.490 C20.769,10.586 20.217,11.554 19.380,12.122 L24.817,19.146 C26.225,20.935 27.000,23.180 27.000,25.471 L27.000,25.867 C27.000,29.262 25.340,32.413 22.558,34.297 ZM16.615,2.106 L10.385,2.106 L10.385,2.287 C10.385,3.788 10.910,5.206 11.873,6.325 L12.462,6.325 L12.462,5.271 C12.462,4.688 12.926,4.216 13.500,4.216 C14.074,4.216 14.538,4.688 14.538,5.271 L14.538,6.325 L15.127,6.325 C16.090,5.206 16.615,3.788 16.615,2.287 L16.615,2.106 ZM17.654,8.435 C16.769,8.435 10.225,8.435 9.346,8.435 C8.774,8.435 8.308,8.908 8.308,9.490 C8.308,10.071 8.774,10.544 9.346,10.544 L17.654,10.544 C18.226,10.544 18.692,10.071 18.692,9.490 C18.692,8.908 18.226,8.435 17.654,8.435 ZM24.923,25.471 C24.923,23.656 24.308,21.876 23.192,20.459 C23.190,20.457 23.189,20.456 23.187,20.452 L17.149,12.654 L9.851,12.654 L3.813,20.452 C3.811,20.456 3.809,20.457 3.808,20.459 C2.692,21.876 2.077,23.656 2.077,25.471 L2.077,25.867 C2.077,28.555 3.392,31.050 5.594,32.541 C6.896,33.422 8.411,33.889 9.975,33.889 L17.025,33.889 C18.589,33.889 20.104,33.422 21.406,32.541 C23.608,31.050 24.923,28.555 24.923,25.867 L24.923,25.471 ZM16.311,29.361 C15.906,29.773 15.248,29.773 14.843,29.361 L13.500,27.997 L12.157,29.361 C11.752,29.773 11.094,29.773 10.689,29.361 C10.283,28.949 10.283,28.281 10.689,27.870 L12.031,26.505 C11.979,26.428 10.385,25.109 10.385,22.649 L10.385,22.287 C10.385,20.542 11.782,19.122 13.500,19.122 C15.218,19.122 16.615,20.542 16.615,22.287 L16.615,22.649 C16.615,25.100 15.019,26.430 14.969,26.505 L16.311,27.870 C16.717,28.281 16.717,28.949 16.311,29.361 ZM14.538,22.287 C14.538,21.705 14.073,21.233 13.500,21.233 C12.927,21.233 12.462,21.705 12.462,22.287 L12.462,22.649 C12.462,24.159 13.455,24.948 13.500,25.014 C13.545,24.948 14.538,24.158 14.538,22.649 L14.538,22.287 Z"/>
</svg>